.
 
http://www.scenetime.com    -   SceneTime [ We been having it ] !!!


How come you press harder on a remote control when you know the battery is dead? so you better seed to get speed ;)

        Seed back for speed


...................................NFO:.................................................








































          
          
              
              
                    
                    
                    
                    

Papillon.1973.BRRip.Xxid-AC3-SiC

Poster:
[img]http://leetleech.org/images/24231503723021644306.jpg[/img]

IMDB Link:
http://www.imdb.com/title/tt0070511/

Description:
A man befriends a fellow criminal as the two of them begin serving their sentence
on a dreadful prison island, which inspires the man to plot his escape.

MediaInfo:
General
Complete name                    : Papillon.1973.BRRip.Xxid-AC3-SiC.avi
Format                           : AVI
Format/Info                      : Audio Video Interleave
File size                        : 1.69 GiB
Duration                         : 2h 30mn
Overall bit rate                 : 1 607 Kbps

Video
ID                               : 0
Format                           : MPEG-4 Visual
Format profile                   : Advanced Simple@L5
Format settings, BVOP            : Yes
Format settings, QPel            : No
Format settings, GMC             : No warppoints
Format settings, Matrix          : Default (H.263)
Muxing mode                      : Packed bitstream
Codec ID                         : XVID
Codec ID/Hint                    : XviD
Duration                         : 2h 30mn
Bit rate                         : 1 215 Kbps
Width                            : 720 pixels
Height                           : 304 pixels
Display aspect ratio             : 2.35:1
Frame rate                       : 23.976 fps
Resolution                       : 8 bits
Colorimetry                      : 4:2:0
Scan type                        : Progressive
Bits/(Pixel*Frame)               : 0.232
Stream size                      : 1.28 GiB (76%)
Writing library                  : XviD 64

Audio
ID                               : 1
Format                           : AC-3
Format/Info                      : Audio Coding 3
Format_Settings_ModeExtension    : CM (complete main)
Codec ID                         : 2000
Duration                         : 2h 30mn
Bit rate mode                    : Constant
Bit rate                         : 384 Kbps
Channel(s)                       : 6 channels
Channel positions                : Front: L C R, Side: L R, LFE
Sampling rate                    : 48.0 KHz
Stream size                      : 414 MiB (24%)
Alignment                        : Aligned on interleaves
Interleave, duration             : 64 ms (1.53 video frames)
Interleave, preload duration     : 192 ms
Title                            : 6ch English

Screenshots:
[img]http://leetleech.org/images/97059802116081389884.png[/img]
[img]http://leetleech.org/images/64417643514014754268.png[/img]
[img]http://leetleech.org/images/61294711470184043964.png[/img]
[img]http://leetleech.org/images/33987800934185795858.png[/img]
[img]http://leetleech.org/images/79514652654960322393.png[/img]

Note :   N/A 

Source : BluRay-HDMaNiAcS Thanks!

Encoder: Bezauk

Enjoy!

Respects to CaptainHomey, Cyanide, CM8, Rx, THC, ELEKTRI4KA, 
Killerhz, PA, YeFsTe, BoxSlots, MrRep and everyone in the struggle...